<?xml version="1.0" encoding="utf-8"?>
<!-- Generator: Adobe Illustrator 16.0.0, SVG Export Plug-In . SVG Version: 6.00 Build 0)  -->
<!DOCTYPE svg PUBLIC "-//W3C//DTD SVG 1.1//EN" "http://www.w3.org/Graphics/SVG/1.1/DTD/svg11.dtd">
<svg version="1.1" id="Capa_1" xmlns="http://www.w3.org/2000/svg" xmlns:xlink="http://www.w3.org/1999/xlink" x="0px" y="0px"
	 width="512px" height="512px" viewBox="0 0 512 512" enable-background="new 0 0 512 512" xml:space="preserve">
<g>
	
		<linearGradient id="SVGID_1_" gradientUnits="userSpaceOnUse" x1="77.7065" y1="246.1709" x2="455.8867" y2="246.1709" gradientTransform="matrix(0.9947 0.1029 -0.1029 0.9947 29.5059 -27.0156)">
		<stop  offset="0" style="stop-color:#FFFFFF"/>
		<stop  offset="1" style="stop-color:#000000"/>
	</linearGradient>
	<path opacity="0.79" fill="#9DE432" stroke="url(#SVGID_1_)" stroke-miterlimit="10" d="M293.414,4.728
		c-18.081-2.314-37.706,0.107-58.572,8.033c-26.575,10.134-47.615,32.641-64.699,55.051c-37.33,48.751-62.468,107.474-83.95,165.271
		c-39.182,105.834,56.221,162.74,56.221,162.74c52.444,31.956,94.057,76.68,103.144,86.784c0.161,0.975,0.261,1.866,0.264,2.783
		c0,0,0.453-0.331,1.36-0.986c0.138,0.168,0.257,0.315,0.257,0.315c0.054-0.221,0.134-0.408,0.158-0.622
		c9.843-7.002,59.361-41.207,117.229-59.76c0,0,103.825-32.146,85.091-145.19c-11.063-66.434-25.787-136.54-58.501-196.114
		C367.164,38.862,333.924,9.918,293.414,4.728z"/>
	<g opacity="0.5">
		
			<linearGradient id="SVGID_2_" gradientUnits="userSpaceOnUse" x1="266.2432" y1="25.8105" x2="266.2431" y2="470.8022" gradientTransform="matrix(1.0136 -0.0057 -0.0057 1.0024 -3.8242 1.5625)">
			<stop  offset="0" style="stop-color:#FFFFFF"/>
			<stop  offset="0.1993" style="stop-color:#DAD0C8"/>
			<stop  offset="0.4481" style="stop-color:#B09B89"/>
			<stop  offset="0.659" style="stop-color:#91745C"/>
			<stop  offset="0.821" style="stop-color:#7E5C3F"/>
			<stop  offset="0.9146" style="stop-color:#775335"/>
			<stop  offset="1" style="stop-color:#775335"/>
		</linearGradient>
		<path opacity="0.79" fill="url(#SVGID_2_)" d="M291.547,26.484c-16.931-1.959-35.309,0.483-54.854,8.036
			c-24.889,9.654-44.596,30.712-60.602,51.638c-34.968,45.524-58.525,100.159-78.656,153.896
			c-36.72,98.408,52.608,150.128,52.608,150.128c49.103,29.058,88.063,70.047,96.567,79.312c0.153,0.903,0.243,1.725,0.248,2.575
			c0,0,0.423-0.31,1.272-0.929c0.128,0.155,0.244,0.293,0.244,0.293c0.048-0.208,0.125-0.377,0.147-0.583
			c9.218-6.581,55.598-38.76,109.792-56.529c0,0,97.239-30.827,79.725-135.32c-10.343-61.399-24.113-126.17-54.733-181.004
			C360.604,57.342,329.48,30.879,291.547,26.484z"/>
	</g>
	<g>
		<linearGradient id="SVGID_3_" gradientUnits="userSpaceOnUse" x1="266.3281" y1="34.6616" x2="266.3281" y2="457.9077">
			<stop  offset="0" style="stop-color:#DCB642"/>
			<stop  offset="0.3441" style="stop-color:#DAB442"/>
			<stop  offset="0.5226" style="stop-color:#D2AC41"/>
			<stop  offset="0.6631" style="stop-color:#C59F3F"/>
			<stop  offset="0.7836" style="stop-color:#B18C3D"/>
			<stop  offset="0.8915" style="stop-color:#997439"/>
			<stop  offset="0.9889" style="stop-color:#7B5736"/>
			<stop  offset="1" style="stop-color:#775335"/>
		</linearGradient>
		<path opacity="0.79" fill="url(#SVGID_3_)" d="M290.408,35.337c-15.898-1.949-33.131,0.27-51.43,7.332
			c-23.304,9.029-41.684,28.906-56.592,48.676c-32.57,43.012-54.385,94.729-72.988,145.613
			c-33.933,93.181,50.164,142.733,50.164,142.733c46.23,27.833,83.006,66.936,91.036,75.77c0.149,0.857,0.237,1.64,0.246,2.446
			c0,0,0.396-0.294,1.189-0.874c0.12,0.148,0.229,0.278,0.229,0.278c0.045-0.195,0.115-0.359,0.135-0.552
			c8.615-6.195,51.966-36.482,102.724-53.056c0,0,91.079-28.734,74.091-127.978c-10.034-58.319-23.299-119.852-52.323-172.043
			C355.372,64.985,326.026,39.709,290.408,35.337z"/>
	</g>
	
		<linearGradient id="SVGID_4_" gradientUnits="userSpaceOnUse" x1="267.0469" y1="188.9092" x2="267.0469" y2="399.8032" gradientTransform="matrix(1.0024 -0.0148 -0.0148 1.0899 4.5684 -28.915)">
		<stop  offset="0" style="stop-color:#02FFFF"/>
		<stop  offset="0.3274" style="stop-color:#0DE7F7"/>
		<stop  offset="1" style="stop-color:#29ABE2"/>
	</linearGradient>
	<path fill="url(#SVGID_4_)" d="M399.023,309.581c-17.161,104.151-127.157,94.838-149.701,91.122
		c-72.416-11.93-122.806-72.073-112.547-134.339c10.262-62.263,77.286-103.063,149.702-91.128
		C358.893,187.167,409.284,247.312,399.023,309.581z"/>
	<path opacity="0.5" fill="#2E3192" d="M350.767,345.501c-56.628,59.496-88.036-20.026-88.036-20.026s-31.305,64.647-78.878,17.654
		c-49.365-48.762,18.956-162.067,92.389-155.141C359.575,195.853,391.021,303.21,350.767,345.501z"/>
	<path fill="#000793" d="M346.316,337.247c-66.08,63.135-79.824-53.072-79.824-53.072s-40.5,108.64-85.507,43.032
		c-36.718-53.52,25.392-142.998,94.74-136.454C354.421,198.178,385.816,299.511,346.316,337.247z"/>
</g>
</svg>
